<svg xmlns="http://www.w3.org/2000/svg" width="100%" height="760" viewBox="0 0 760 760" version="1.1"><path d="M 0 380.001 L 0 760.003 380.250 759.751 L 760.500 759.500 760.751 379.750 L 761.003 0 380.501 0 L 0 0 0 380.001 " stroke="none" fill="transparent" fill-rule="evenodd"/><path d="M 0.495 380.500 C 0.495 589.500, 0.610 674.851, 0.750 570.169 C 0.890 465.486, 0.890 294.486, 0.750 190.169 C 0.610 85.851, 0.495 171.500, 0.495 380.500 " stroke="none" fill="white" fill-rule="evenodd"/><path d="M 104.615 64.814 C 104.034 65.755, 108.045 79.703, 132.994 163.500 C 142.983 197.050, 161.724 260.050, 174.640 303.500 C 196.561 377.241, 204.953 405.431, 230.011 489.500 C 235.420 507.650, 244.650 538.700, 250.521 558.500 C 277.519 649.551, 288.135 684.535, 289.042 685.442 C 290.237 686.637, 288.721 688.209, 314.535 659 C 325.958 646.075, 355.185 613, 379.484 585.500 C 403.783 558, 438.205 519.075, 455.977 499 C 473.750 478.925, 503.170 445.625, 521.357 425 C 553.858 388.142, 582.566 355.686, 604.502 331 C 624.247 308.780, 684.364 240.682, 689.761 234.422 C 695.398 227.883, 695.974 226.428, 693.250 225.607 C 692.288 225.317, 673.500 220.140, 651.500 214.104 C 616.921 204.615, 469.575 164.098, 327.500 125.011 C 303.850 118.504, 276.850 111.079, 267.500 108.509 C 258.150 105.940, 217.978 94.874, 178.228 83.919 C 138.479 72.963, 105.768 64, 105.537 64 C 105.307 64, 104.892 64.366, 104.615 64.814 " stroke="none" fill="#8212f1" fill-rule="evenodd"/><path d="M 145.589 103.856 C 145.230 104.437, 148.518 116.970, 152.897 131.707 C 157.276 146.443, 168.960 185.725, 178.862 219 C 188.764 252.275, 203.225 300.875, 210.999 327 C 218.773 353.125, 234.076 404.650, 245.007 441.500 C 281.346 564.012, 299.040 622.440, 300.115 623.476 C 301.290 624.606, 302.438 623.433, 330.913 592 C 350.775 570.075, 477.369 429.745, 560.014 338.042 C 589.981 304.790, 621.850 269.465, 630.833 259.542 C 648.860 239.629, 650.722 237.277, 649.399 236.093 C 648.904 235.651, 624.425 228.934, 595 221.167 C 565.575 213.399, 524.400 202.510, 503.500 196.968 C 482.600 191.426, 449.525 182.668, 430 177.505 C 410.475 172.343, 356.925 158.168, 311 146.006 C 125.456 96.868, 146.581 102.251, 145.589 103.856 " stroke="none" fill="white" fill-rule="evenodd"/><path d="M 177.617 129.810 C 177.295 130.331, 178.342 135.199, 179.943 140.629 C 181.544 146.058, 191.026 177.950, 201.013 211.500 C 235.634 327.801, 252.832 385.600, 270.343 444.500 C 305.850 563.934, 311.375 582.121, 312.640 583.741 C 314.283 585.843, 314.861 585.264, 338.854 557.500 C 347.410 547.600, 365.913 526.675, 379.973 511 C 394.033 495.325, 425.598 459.775, 450.119 432 C 474.640 404.225, 517.157 356.067, 544.601 324.982 C 608.595 252.498, 610 250.884, 610 249.834 C 610 248.515, 606.802 247.483, 579.500 239.995 C 556.095 233.576, 499.815 218.034, 398.500 190.012 C 374.850 183.471, 316.205 167.266, 268.179 154.001 C 220.152 140.736, 180.260 129.653, 179.530 129.373 C 178.800 129.093, 177.939 129.290, 177.617 129.810 " stroke="none" fill="#8212f1" fill-rule="evenodd"/><path d="M 206.557 158.908 C 206.006 159.799, 230.454 238.271, 245.997 285.500 C 254.475 311.260, 279.222 392.399, 284.122 410.500 C 287.474 422.881, 291.890 437.049, 309.215 491 C 315.838 511.625, 321.476 529.288, 321.745 530.250 C 322.014 531.212, 323.044 532, 324.034 532 C 326.272 532, 348.995 508.148, 348.998 505.797 C 348.999 504.861, 337.750 469.293, 324 426.758 C 310.250 384.223, 299 349.102, 299 348.711 C 299 348.320, 299.626 348, 300.391 348 C 302.157 348, 370.164 375.764, 371.383 376.983 C 372.216 377.816, 379.537 399.813, 392.105 439.250 C 395.049 448.485, 397.641 455, 398.373 455 C 399.059 455, 404.269 450.276, 409.950 444.503 L 420.279 434.006 419.691 429.253 C 419.368 426.639, 411.176 398.175, 401.487 366 C 369.148 258.608, 347.513 191.426, 344.774 189.893 C 343.844 189.373, 325.627 184.884, 304.292 179.919 C 200.766 155.824, 207.560 157.285, 206.557 158.908 " stroke="none" fill="white" fill-rule="evenodd"/><path d="M 367 199.823 C 367 200.825, 371.748 217.587, 377.552 237.073 C 383.356 256.558, 393.056 289.150, 399.108 309.500 C 405.160 329.850, 414.867 362.475, 420.679 382 C 426.490 401.525, 431.799 418.093, 432.475 418.817 C 433.473 419.885, 435.931 417.711, 445.476 407.317 C 451.949 400.268, 457.904 393.508, 458.708 392.296 C 460.432 389.696, 460.984 391.759, 437.513 313 C 416.481 242.420, 415.753 239.837, 416.682 238.988 C 417.508 238.234, 446.380 244.879, 448.812 246.383 C 450.655 247.523, 450.922 248.316, 463.142 289 C 473.554 323.664, 480.277 345.718, 483.643 356.250 C 484.478 358.863, 485.757 361, 486.485 361 C 487.849 361, 511.426 335.688, 515.840 329.485 L 518.316 326.005 514.174 304.253 C 507.863 271.106, 505.571 257.096, 506.333 256.333 C 507.737 254.930, 554 266.705, 554 268.465 C 554 269.121, 549.725 272.535, 544.500 276.052 C 535.576 282.059, 535 282.656, 535 285.892 C 535 291.515, 537.093 301.832, 538.464 302.970 C 539.432 303.773, 543.458 299.998, 555.214 287.264 C 576.883 263.793, 584 255.764, 584 254.791 C 584 253.404, 581.856 252.808, 507.825 233.615 C 382.432 201.107, 370.287 198, 368.628 198 C 367.720 198, 367 198.806, 367 199.823 " stroke="none" fill="white" fill-rule="evenodd"/><path d="M 256 202.346 C 256 205.507, 290.018 303.459, 291.679 305.082 C 294.013 307.363, 355.925 333, 359.099 333 C 359.594 333, 360 332.306, 360 331.457 C 360 330.073, 335.987 258.033, 328.015 235.500 C 326.264 230.550, 324.081 225.726, 323.165 224.780 C 321.555 223.117, 260.458 201, 257.475 201 C 256.664 201, 256 201.606, 256 202.346" stroke="none" fill="#8212f1" fill-rule="evenodd"/></svg>